<?xml version="1.0" encoding="utf-8"?>
<!-- Generator: Adobe Illustrator 17.0.0, SVG Export Plug-In . SVG Version: 6.00 Build 0)  -->
<!DOCTYPE svg PUBLIC "-//W3C//DTD SVG 1.1//EN" "http://www.w3.org/Graphics/SVG/1.1/DTD/svg11.dtd">
<svg version="1.1" id="icons" xmlns="http://www.w3.org/2000/svg" xmlns:xlink="http://www.w3.org/1999/xlink" x="0px" y="0px"
	 width="64px" height="64px" viewBox="0 0 64 64" enable-background="new 0 0 64 64" xml:space="preserve">
<g>
	<g>
		<path fill="#69BC45" d="M32,0C14.3,0,0,14.3,0,32s14.3,32,32,32s32-14.3,32-32S49.7,0,32,0z M10.2,41.7V22.3c0-3,2.5-5.5,5.5-5.5
			h32.6c3,0,5.5,2.5,5.5,5.5v19.4c0,3-2.5,5.5-5.5,5.5H15.7C12.7,47.2,10.2,44.7,10.2,41.7z"/>
		<path fill="#FFFFFF" d="M48.3,16.8H15.7c-3,0-5.5,2.5-5.5,5.5v19.4c0,3,2.5,5.5,5.5,5.5h32.6c3,0,5.5-2.5,5.5-5.5V22.3
			C53.8,19.3,51.3,16.8,48.3,16.8z M49.2,41.7c0,0.5-0.4,0.9-0.9,0.9H15.7c-0.5,0-0.9-0.4-0.9-0.9V22.3c0-0.5,0.4-0.9,0.9-0.9h32.6
			c0.5,0,0.9,0.4,0.9,0.9V41.7z"/>
		<path fill="#69BC45" d="M48.3,21.3H15.7c-0.5,0-0.9,0.4-0.9,0.9v19.4c0,0.5,0.4,0.9,0.9,0.9h32.6c0.5,0,0.9-0.4,0.9-0.9V22.3
			C49.2,21.8,48.8,21.3,48.3,21.3z M45.9,27.5l-12.5,9.9C33,37.8,32.5,38,32,38c-0.5,0-1-0.2-1.4-0.5l-12.5-9.9
			c-1-0.8-1.1-2.2-0.4-3.2c0.8-1,2.2-1.2,3.2-0.4L32,32.8L43.1,24c1-0.8,2.4-0.6,3.2,0.4C47.1,25.3,46.9,26.7,45.9,27.5z"/>
		<path fill="#FFFFFF" d="M45.9,27.5l-12.5,9.9C33,37.8,32.5,38,32,38c-0.5,0-1-0.2-1.4-0.5l-12.5-9.9c-1-0.8-1.1-2.2-0.4-3.2
			c0.8-1,2.2-1.2,3.2-0.4L32,32.8L43.1,24c1-0.8,2.4-0.6,3.2,0.4C47.1,25.3,46.9,26.7,45.9,27.5z"/>
	</g>
</g>
<g>
	<path fill="#F69320" d="M-64,0c-17.7,0-32,14.3-32,32s14.3,32,32,32s32-14.3,32-32S-46.3,0-64,0z M-78.1,42.2
		c0-2.3,1.9-4.2,4.2-4.2c2.3,0,4.2,1.9,4.2,4.2c0,2.3-1.9,4.2-4.2,4.2C-76.2,46.4-78.1,44.6-78.1,42.2z M-78.1,31.6v-6.1
		c11.5,0,20.8,9.4,20.8,20.9h-6.1c0-4-1.5-7.7-4.3-10.5C-70.5,33.2-74.2,31.6-78.1,31.6z M-52.6,46.5c0-14.1-11.4-25.6-25.5-25.6
		v-6.1c17.4,0,31.5,14.2,31.5,31.7H-52.6z"/>
	<path fill="#FFFFFF" d="M-69.7,42.2c0,2.3-1.9,4.2-4.2,4.2c-2.3,0-4.2-1.9-4.2-4.2c0-2.3,1.9-4.2,4.2-4.2
		C-71.6,38-69.7,39.9-69.7,42.2z"/>
	<path fill="#FFFFFF" d="M-57.3,46.5h-6.1c0-4-1.5-7.7-4.3-10.5c-2.8-2.8-6.5-4.3-10.4-4.3v-6.1C-66.6,25.5-57.3,34.9-57.3,46.5z"/>
	<path fill="#FFFFFF" d="M-46.6,46.5h-6.1c0-14.1-11.4-25.6-25.5-25.6v-6.1C-60.7,14.8-46.6,29-46.6,46.5z"/>
</g>
<g>
	<path fill="#2AA9E0" d="M-160,0c-17.7,0-32,14.3-32,32s14.3,32,32,32s32-14.3,32-32S-142.3,0-160,0z M-143.9,25.5v1
		c0,10.7-8.1,23-22.9,23c-4.6,0-8.8-1.3-12.4-3.6c0.6,0.1,1.3,0.1,1.9,0.1c3.8,0,7.3-1.3,10-3.4c-3.5-0.1-6.5-2.4-7.5-5.6
		c0.5,0.1,1,0.1,1.5,0.1c0.7,0,1.4-0.1,2.1-0.3c-3.7-0.7-6.5-4-6.5-7.9v-0.1c1.1,0.6,2.3,1,3.7,1c-2.2-1.4-3.6-3.9-3.6-6.7
		c0-1.5,0.4-2.9,1.1-4.1c4,4.9,9.9,8.1,16.6,8.4c-0.1-0.6-0.2-1.2-0.2-1.8c0-4.5,3.6-8.1,8.1-8.1c2.3,0,4.4,1,5.9,2.5
		c1.8-0.3,3.5-1,5.1-1.9c-0.6,1.9-1.9,3.5-3.5,4.5c1.6-0.2,3.2-0.6,4.6-1.3C-140.9,23-142.3,24.4-143.9,25.5z"/>
	<path fill="#FFFFFF" d="M-139.9,21.4c-1.1,1.6-2.4,3-4,4.2v1c0,10.7-8.1,23-22.9,23c-4.6,0-8.8-1.3-12.4-3.6
		c0.6,0.1,1.3,0.1,1.9,0.1c3.8,0,7.3-1.3,10-3.4c-3.5-0.1-6.5-2.4-7.5-5.6c0.5,0.1,1,0.1,1.5,0.1c0.7,0,1.4-0.1,2.1-0.3
		c-3.7-0.7-6.5-4-6.5-7.9v-0.1c1.1,0.6,2.3,1,3.7,1c-2.2-1.4-3.6-3.9-3.6-6.7c0-1.5,0.4-2.9,1.1-4.1c4,4.9,9.9,8.1,16.6,8.4
		c-0.1-0.6-0.2-1.2-0.2-1.8c0-4.5,3.6-8.1,8.1-8.1c2.3,0,4.4,1,5.9,2.5c1.8-0.3,3.5-1,5.1-1.9c-0.6,1.9-1.9,3.5-3.5,4.5
		C-142.9,22.5-141.3,22-139.9,21.4z"/>
</g>
</svg>
