<?xml version="1.0" encoding="utf-8"?>
<!-- Generator: Adobe Illustrator 17.0.0, SVG Export Plug-In . SVG Version: 6.00 Build 0)  -->
<!DOCTYPE svg PUBLIC "-//W3C//DTD SVG 1.1//EN" "http://www.w3.org/Graphics/SVG/1.1/DTD/svg11.dtd">
<svg version="1.1" xmlns="http://www.w3.org/2000/svg" xmlns:xlink="http://www.w3.org/1999/xlink" x="0px" y="0px" width="400px"
	 height="89.8px" viewBox="0 0 400 89.8" enable-background="new 0 0 400 89.8" xml:space="preserve">
<g id="compass">
	<path fill="#26799E" d="M-292.8,43.1c-0.4-2.8-2.1-4.6-4.9-5.2c0,0,0,0,0,0c-0.2,0-0.3-0.1-0.5-0.1l-1.8-9.8l-1.8,9.8
		c-0.2,0-0.3,0.1-0.5,0.1c0,0,0,0,0,0c-2.8,0.6-4.5,2.5-4.9,5.2l-9.8,1.8l9.8,1.8c0.7,2.6,2.7,4.7,5.4,5.4l1.8,9.8l1.8-9.8
		c2.6-0.7,4.7-2.7,5.4-5.4l9.8-1.8L-292.8,43.1z M-300,48.9c-2,0-3.2-1.9-3.2-4.4c0-2.4,1.1-3.7,3.2-3.7s3.2,1.3,3.2,3.7
		C-296.8,47-298,48.9-300,48.9z"/>
</g>
<g id="outlines_1_">
	<g>
		<path fill="#26799E" d="M49.1,31.2c-0.7-5.9-4.2-9.8-9.9-11.1c0,0,0,0-0.1,0c-0.3-0.1-0.6-0.2-1-0.3L34.4,0l-3.7,19.8
			c-0.3,0.1-0.7,0.2-1,0.3c0,0,0,0-0.1,0c-5.5,1.3-9,5-9.9,10.6L0,34.4l19.8,3.7c1.4,5.3,5.5,9.5,10.9,10.9l3.7,19.8L38.1,49
			c5.3-1.4,9.5-5.5,10.9-10.9c0.3-1.2,0.5-2.4,0.5-3.7C49.4,33.3,49.3,32.2,49.1,31.2z M34.4,42.5c-4,0-6.5-3.8-6.5-8.9
			c0-4.8,2.2-7.4,6.5-7.4s6.5,2.6,6.5,7.4C40.9,38.7,38.4,42.5,34.4,42.5z"/>
		<path fill="#26799E" d="M77.5,43c0,4-4.6,6.1-10.5,6.1c-9.8,0-14.9-6.4-14.9-15.6c0-8.6,5.7-13.9,15-13.9c6.5,0,11.4,2.9,11.4,7.8
			c0,2.9-2,4.5-5.4,4.5h-1.5v-1c0-3-1.4-4.8-4.6-4.8c-3.9,0-6.5,2.8-6.5,7.5c0,5.7,3.5,8.9,9.3,8.9c2.8,0,5.4-0.6,7.8-1.5V43z"/>
		<path fill="#26799E" d="M102.8,48.7H90.9c-6.6,0-8.8-2.2-8.8-8.6V24.2c0-4.1,1.2-4.1,8.1-4.1h9.9c2.5,0,2.5,2.1,2.5,6.3H90.1v5.7
			h9.6v5.5h-9.6v2c0,2,0.9,2.8,2.9,2.8h9.7V48.7z"/>
		<path fill="#26799E" d="M126.4,48.7l-1.4-4.2h-10c-0.4,1.4-0.8,2.8-1.1,4.2h-8.9c3.1-9.8,6-17.2,9.3-23.4c0.8-1.6,1.1-3.1,0.8-4
			c2.6-1.2,6.4-1.7,9-1.7l11.1,28.5v0.5H126.4z M120.2,29.4c-1.2,2.8-2.2,5.8-3.2,8.7h6L120.2,29.4z"/>
		<path fill="#26799E" d="M157.7,49.3L145.9,33v15.7H138V21.3c2.1-1,5.4-1.7,7.7-1.8l11.7,16.1V20.1h7.9v27.4
			C163.2,48.5,159.9,49.2,157.7,49.3z"/>
		<path fill="#26799E" d="M190.7,41.2h-2.3v7.5h-8.1V24.1c0-4.1,1-4.1,8.1-4.1h2.8c7.9,0,12.3,3.3,12.3,10.2
			C203.4,36.9,198.2,41.2,190.7,41.2z M189.7,26.5h-1.3v8.5h1.2c4,0,5.6-2.1,5.6-4.8C195.1,27.4,193.2,26.5,189.7,26.5z"/>
		<path fill="#26799E" d="M215.5,48.7c-6.6,0-8.8-2.2-8.8-8.6V24c0-4.1,1-4.1,8.1-4.1v19.5c0,1.7,0.8,2.4,2.5,2.4h8.9v6.9H215.5z"/>
		<path fill="#26799E" d="M249.8,48.7l-1.4-4.2h-10c-0.4,1.4-0.8,2.8-1.1,4.2h-8.9c3.1-9.8,6-17.2,9.3-23.4c0.8-1.6,1.1-3.1,0.8-4
			c2.6-1.2,6.4-1.7,9-1.7l11.1,28.5v0.5H249.8z M243.5,29.4c-1.2,2.8-2.2,5.8-3.2,8.7h6L243.5,29.4z"/>
		<path fill="#26799E" d="M281,49.3L269.3,33v15.7h-7.9V21.3c2.1-1,5.4-1.7,7.7-1.8l11.7,16.1V20.1h7.9v27.4
			C286.6,48.5,283.3,49.2,281,49.3z"/>
		<path fill="#26799E" d="M313.5,49.3L301.8,33v15.7h-7.9V21.3c2.1-1,5.4-1.7,7.7-1.8l11.7,16.1V20.1h7.9v27.4
			C319.1,48.5,315.8,49.2,313.5,49.3z"/>
		<path fill="#26799E" d="M326.4,48.7V24c0-4.1,1-4.1,8.1-4.1v28.8H326.4z"/>
		<path fill="#26799E" d="M359.3,49.3L347.6,33v15.7h-7.9V21.3c2.1-1,5.4-1.7,7.7-1.8l11.7,16.1V20.1h7.9v27.4
			C364.9,48.5,361.6,49.2,359.3,49.3z"/>
		<path fill="#26799E" d="M396.7,41.3v1.6c0,3.9-4.3,6.2-10.8,6.2c-9.8,0-14.9-6.4-14.9-15.6c0-8.6,6.3-13.9,15.5-13.9
			c6.5,0,10.9,2.9,10.9,7.8c0,2.9-2,4.5-5.4,4.5h-1.5v-1c0-3-1.4-4.8-4.6-4.8c-3.9,0-6.5,2.8-6.5,7.5c0,5.7,2.3,9.4,8.4,9.4
			c0.4,0,0.7,0,1.2-0.1v-3.5c0-4,1.2-4,7.7-4h3.4v5.9H396.7z"/>
		<path fill="#26799E" d="M46.4,78v-15c0-2.5,0.6-2.5,4.9-2.5V78H46.4z"/>
		<path fill="#26799E" d="M66.3,78.4l-7.1-9.9V78h-4.8V61.5c1.3-0.6,3.3-1,4.6-1.1l7.1,9.7v-9.4H71v16.6
			C69.7,77.9,67.7,78.3,66.3,78.4z"/>
		<path fill="#26799E" d="M85.8,78V65h-5.5v-4.3h14.1c1.7,0,1.7,1.5,1.7,4.3h-5.5v13H85.8z"/>
		<path fill="#26799E" d="M113.9,75.7c0,2.5-0.6,2.5-4.9,2.5V72h-6.2V78h-4.9v-15c0-2.5,0.6-2.5,4.9-2.5v7.1h6.2v-7h4.9V75.7z"/>
		<path fill="#26799E" d="M129.6,78h-7.2c-4,0-5.3-1.3-5.3-5.2v-9.6c0-2.5,0.7-2.5,4.9-2.5h6c1.5,0,1.5,1.3,1.5,3.8h-7.5V68h5.8v3.3
			h-5.8v1.2c0,1.2,0.5,1.7,1.8,1.7h5.9V78z"/>
		<path fill="#26799E" d="M159.1,89.8l-11.7-16.4v15.7h-7.9V61.8c2.1-1,5.4-1.7,7.7-1.8L158.9,76V60.5h7.9v27.4
			C164.7,88.9,161.4,89.6,159.1,89.8z"/>
		<path fill="#26799E" d="M185.6,89.6c-9,0-14.9-6.8-14.9-15.6c0-8.8,5.5-13.9,14.9-13.9s14.9,5.2,14.9,13.9
			C200.5,82.8,194.7,89.6,185.6,89.6z M185.6,66.6c-4.3,0-6.5,2.6-6.5,7.4c0,5.1,2.5,8.9,6.5,8.9s6.5-3.8,6.5-8.9
			C192.1,69.2,189.9,66.6,185.6,66.6z"/>
		<path fill="#26799E" d="M223.4,77.6l2.7,4.2c1.2,1.9,2.2,2.9,4.2,2.9h0.5v1c0,2.4-2.4,3.8-5.6,3.8c-3,0-4.8-0.7-6.9-4.7l-1.9-3.6
			h-3.9v7.9h-8.1V64.6c0-4.1,1-4.1,8.1-4.1h3.9c7.6,0,11.7,2.8,11.7,8.8C228.2,73.3,226.2,75.9,223.4,77.6z M214.7,67h-2.1v8h2.1
			c3.2,0,5.3-1.7,5.3-4.4C220,67.5,217.7,67,214.7,67z"/>
		<path fill="#26799E" d="M240.4,89.1V67.6h-9v-7.1h23.4c2.8,0,2.8,2.4,2.8,7.1h-9.1v21.5H240.4z"/>
		<path fill="#26799E" d="M287.7,85.2c0,4.1-1,4.1-8.1,4.1V79.1h-10.2v10h-8.1V64.4c0-4.1,1-4.1,8.1-4.1v11.7h10.2V60.5h8.1V85.2z"
			/>
		<path fill="#26799E" d="M313.6,89.1h-11.9c-6.6,0-8.8-2.2-8.8-8.6V64.6c0-4.1,1.2-4.1,8.1-4.1h9.9c2.5,0,2.5,2.1,2.5,6.3h-12.4
			v5.7h9.6V78h-9.6v2c0,2,0.9,2.8,2.9,2.8h9.7V89.1z"/>
		<path fill="#26799E" d="M337.2,89.1l-1.4-4.2h-10c-0.4,1.4-0.8,2.8-1.1,4.2h-8.9c3.1-9.8,6-17.2,9.3-23.4c0.8-1.6,1.1-3.1,0.8-4
			c2.6-1.2,6.4-1.7,9-1.7l11.1,28.5v0.5H337.2z M331,69.8c-1.2,2.8-2.2,5.8-3.2,8.7h6L331,69.8z"/>
		<path fill="#26799E" d="M357.4,89.6c-4.5,0-8.7-1.3-8.7-5.6v-2.2c2.2,1,4.6,1.3,6.9,1.3c2.5,0,4.1-0.5,4.1-1.7
			c0-3.2-12.7-0.5-12.7-11.2c0-6.6,5.3-10.2,12.3-10.2c6,0,10.3,2.5,10.3,6.7c0,2.5-2.1,4.2-5.3,4.2h-1.7V70c0-2.1-0.9-3.8-3.4-3.8
			c-1.9,0-3.2,1-3.2,2.6c0,5.5,12.6,1.6,12.6,11.7C368.6,86.6,363.4,89.6,357.4,89.6z"/>
		<path fill="#26799E" d="M382,89.1V67.6h-9v-7.1h23.4c2.8,0,2.8,2.4,2.8,7.1h-9.1v21.5H382z"/>
	</g>
</g>
<g id="outlines">
	<g>
		<path fill="#26799E" d="M117.8-267.6c-0.3-2.9-2.1-4.8-4.9-5.5c0,0,0,0,0,0c-0.2,0-0.3-0.1-0.5-0.1l-1.8-9.8l-1.8,9.8
			c-0.2,0-0.3,0.1-0.5,0.1c0,0,0,0,0,0c-2.7,0.6-4.5,2.5-4.9,5.2l-9.8,1.8l9.8,1.8c0.7,2.6,2.7,4.7,5.4,5.4l1.8,9.8l1.8-9.8
			c2.6-0.7,4.7-2.7,5.4-5.4c0.1-0.6,0.2-1.2,0.2-1.8C118-266.6,117.9-267.1,117.8-267.6z M110.5-262.1c-2,0-3.2-1.9-3.2-4.4
			c0-2.4,1.1-3.7,3.2-3.7s3.2,1.3,3.2,3.7C113.8-263.9,112.5-262.1,110.5-262.1z"/>
		<path fill="#26799E" d="M131.9-261.8c0,2-2.3,3-5.2,3c-4.8,0-7.4-3.1-7.4-7.7c0-4.2,2.8-6.9,7.4-6.9c3.2,0,5.6,1.5,5.6,3.9
			c0,1.4-1,2.2-2.7,2.2h-0.7v-0.5c0-1.5-0.7-2.4-2.3-2.4c-1.9,0-3.2,1.4-3.2,3.7c0,2.8,1.7,4.4,4.6,4.4c1.4,0,2.7-0.3,3.9-0.7
			V-261.8z"/>
		<path fill="#26799E" d="M144.4-259h-5.9c-3.3,0-4.4-1.1-4.4-4.2v-7.9c0-2,0.6-2,4-2h4.9c1.2,0,1.2,1.1,1.2,3.1h-6.1v2.8h4.8v2.7
			h-4.8v1c0,1,0.4,1.4,1.5,1.4h4.8V-259z"/>
		<path fill="#26799E" d="M156.1-259l-0.7-2.1h-4.9c-0.2,0.7-0.4,1.4-0.5,2.1h-4.4c1.5-4.8,3-8.5,4.6-11.6c0.4-0.8,0.5-1.5,0.4-2
			c1.3-0.6,3.1-0.8,4.5-0.9l5.5,14.1v0.3H156.1z M153-268.5c-0.6,1.4-1.1,2.9-1.6,4.3h3L153-268.5z"/>
		<path fill="#26799E" d="M171.5-258.7l-5.8-8.1v7.8h-3.9v-13.5c1-0.5,2.7-0.8,3.8-0.9l5.8,7.9v-7.7h3.9v13.6
			C174.3-259.1,172.6-258.7,171.5-258.7z"/>
		<path fill="#26799E" d="M187.8-262.7h-1.1v3.7h-4v-12.1c0-2,0.5-2,4-2h1.4c3.9,0,6.1,1.6,6.1,5.1
			C194.2-264.8,191.6-262.7,187.8-262.7z M187.4-269.9h-0.7v4.2h0.6c2,0,2.8-1,2.8-2.4C190-269.5,189.1-269.9,187.4-269.9z"/>
		<path fill="#26799E" d="M200.1-259c-3.3,0-4.4-1.1-4.4-4.2v-8c0-2,0.5-2,4-2v9.7c0,0.9,0.4,1.2,1.3,1.2h4.4v3.4H200.1z"/>
		<path fill="#26799E" d="M217.1-259l-0.7-2.1h-4.9c-0.2,0.7-0.4,1.4-0.5,2.1h-4.4c1.5-4.8,3-8.5,4.6-11.6c0.4-0.8,0.5-1.5,0.4-2
			c1.3-0.6,3.1-0.8,4.5-0.9l5.5,14.1v0.3H217.1z M214-268.5c-0.6,1.4-1.1,2.9-1.6,4.3h3L214-268.5z"/>
		<path fill="#26799E" d="M232.5-258.7l-5.8-8.1v7.8h-3.9v-13.5c1-0.5,2.7-0.8,3.8-0.9l5.8,7.9v-7.7h3.9v13.6
			C235.3-259.1,233.7-258.7,232.5-258.7z"/>
		<path fill="#26799E" d="M248.6-258.7l-5.8-8.1v7.8h-3.9v-13.5c1-0.5,2.7-0.8,3.8-0.9l5.8,7.9v-7.7h3.9v13.6
			C251.4-259.1,249.7-258.7,248.6-258.7z"/>
		<path fill="#26799E" d="M255-259v-12.2c0-2,0.5-2,4-2v14.3H255z"/>
		<path fill="#26799E" d="M271.3-258.7l-5.8-8.1v7.8h-3.9v-13.5c1-0.5,2.7-0.8,3.8-0.9l5.8,7.9v-7.7h3.9v13.6
			C274-259.1,272.4-258.7,271.3-258.7z"/>
		<path fill="#26799E" d="M289.7-262.6v0.8c0,1.9-2.1,3.1-5.3,3.1c-4.8,0-7.4-3.1-7.4-7.7c0-4.2,3.1-6.9,7.7-6.9
			c3.2,0,5.4,1.5,5.4,3.9c0,1.4-1,2.2-2.7,2.2h-0.7v-0.5c0-1.5-0.7-2.4-2.3-2.4c-1.9,0-3.2,1.4-3.2,3.7c0,2.8,1.1,4.6,4.1,4.6
			c0.2,0,0.4,0,0.6,0v-1.7c0-2,0.6-2,3.8-2h1.7v2.9H289.7z"/>
		<path fill="#26799E" d="M116.5-244.5v-7.4c0-1.2,0.3-1.2,2.4-1.2v8.6H116.5z"/>
		<path fill="#26799E" d="M126.4-244.3l-3.5-4.9v4.7h-2.4v-8.2c0.6-0.3,1.6-0.5,2.3-0.5l3.5,4.8v-4.6h2.4v8.2
			C128-244.5,127-244.3,126.4-244.3z"/>
		<path fill="#26799E" d="M136-244.5v-6.4h-2.7v-2.1h7c0.8,0,0.8,0.7,0.8,2.1h-2.7v6.4H136z"/>
		<path fill="#26799E" d="M149.9-245.6c0,1.2-0.3,1.2-2.4,1.2v-3h-3v3H142v-7.4c0-1.2,0.3-1.2,2.4-1.2v3.5h3v-3.5h2.4V-245.6z"/>
		<path fill="#26799E" d="M157.6-244.5h-3.6c-2,0-2.6-0.7-2.6-2.6v-4.8c0-1.2,0.4-1.2,2.4-1.2h3c0.7,0,0.7,0.6,0.7,1.9h-3.7v1.7h2.9
			v1.7h-2.9v0.6c0,0.6,0.3,0.9,0.9,0.9h2.9V-244.5z"/>
		<path fill="#26799E" d="M172.3-238.7l-5.8-8.1v7.8h-3.9v-13.5c1-0.5,2.7-0.8,3.8-0.9l5.8,7.9v-7.7h3.9v13.6
			C175-239.1,173.4-238.7,172.3-238.7z"/>
		<path fill="#26799E" d="M185.4-238.8c-4.5,0-7.3-3.4-7.3-7.7c0-4.3,2.7-6.9,7.3-6.9s7.3,2.6,7.3,6.9
			C192.7-242.1,189.8-238.8,185.4-238.8z M185.4-250.1c-2.1,0-3.2,1.3-3.2,3.7c0,2.5,1.2,4.4,3.2,4.4s3.2-1.9,3.2-4.4
			C188.6-248.8,187.5-250.1,185.4-250.1z"/>
		<path fill="#26799E" d="M204-244.7l1.3,2.1c0.6,0.9,1.1,1.5,2.1,1.5h0.3v0.5c0,1.2-1.2,1.9-2.8,1.9c-1.5,0-2.4-0.4-3.4-2.3
			l-0.9-1.8h-1.9v3.9h-4v-12.1c0-2,0.5-2,4-2h1.9c3.8,0,5.8,1.4,5.8,4.3C206.4-246.8,205.4-245.5,204-244.7z M199.7-249.9h-1.1v4
			h1.1c1.6,0,2.6-0.8,2.6-2.2C202.4-249.7,201.2-249.9,199.7-249.9z"/>
		<path fill="#26799E" d="M212.5-239v-10.6H208v-3.5h11.6c1.4,0,1.4,1.2,1.4,3.5h-4.5v10.6H212.5z"/>
		<path fill="#26799E" d="M235.8-240.9c0,2-0.5,2-4,2v-5h-5v5h-4v-12.2c0-2,0.5-2,4-2v5.8h5v-5.7h4V-240.9z"/>
		<path fill="#26799E" d="M248.6-239h-5.9c-3.3,0-4.4-1.1-4.4-4.2v-7.9c0-2,0.6-2,4-2h4.9c1.2,0,1.2,1.1,1.2,3.1h-6.1v2.8h4.8v2.7
			h-4.8v1c0,1,0.4,1.4,1.5,1.4h4.8V-239z"/>
		<path fill="#26799E" d="M260.3-239l-0.7-2.1h-4.9c-0.2,0.7-0.4,1.4-0.6,2.1h-4.4c1.5-4.8,3-8.5,4.6-11.6c0.4-0.8,0.5-1.5,0.4-2
			c1.3-0.6,3.1-0.8,4.5-0.9l5.5,14.1v0.3H260.3z M257.2-248.5c-0.6,1.4-1.1,2.9-1.6,4.3h3L257.2-248.5z"/>
		<path fill="#26799E" d="M270.3-238.8c-2.2,0-4.3-0.6-4.3-2.8v-1.1c1.1,0.5,2.3,0.7,3.4,0.7c1.3,0,2-0.2,2-0.9
			c0-1.6-6.3-0.2-6.3-5.5c0-3.3,2.6-5,6.1-5c3,0,5.1,1.2,5.1,3.3c0,1.3-1,2.1-2.6,2.1h-0.9v-0.4c0-1.1-0.5-1.9-1.7-1.9
			c-0.9,0-1.6,0.5-1.6,1.3c0,2.7,6.2,0.8,6.2,5.8C275.9-240.2,273.3-238.8,270.3-238.8z"/>
		<path fill="#26799E" d="M282.5-239v-10.6H278v-3.5h11.6c1.4,0,1.4,1.2,1.4,3.5h-4.5v10.6H282.5z"/>
	</g>
</g>
<g id="livetext">
	<g>
		<g>
			<path fill="#26799E" d="M-389.4-270.8c-0.9,0-1.7,0.3-2.4,0.7l0.6-3.2l1.8-9.8l1.8,9.8l0.6,3.2
				C-387.7-270.5-388.6-270.8-389.4-270.8z"/>
			<path fill="#26799E" d="M-389.4-261.4c0.9,0,1.7-0.3,2.4-0.7l-0.6,3.2l-1.8,9.8l-1.8-9.8l-0.6-3.2
				C-391.2-261.6-390.3-261.4-389.4-261.4z"/>
			<path fill="#26799E" d="M-394.2-266.1c0,0.9,0.3,1.7,0.7,2.4l-3.2-0.6l-9.8-1.8l9.8-1.8l3.2-0.6
				C-393.9-267.8-394.2-267-394.2-266.1z"/>
			<path display="none" fill="#26799E" d="M-372.4-266.1l-9.8,1.8l-3.2,0.6c0.4-0.7,0.7-1.5,0.7-2.4s-0.3-1.7-0.7-2.4l3.2,0.6
				L-372.4-266.1z"/>
			<path fill="#26799E" d="M-382.2-267.9c-0.7-2.6-2.7-4.7-5.4-5.4c-0.6-0.1-1.2-0.2-1.8-0.2c-0.6,0-1.3,0.1-1.8,0.2
				c-2.6,0.7-4.7,2.7-5.4,5.4c-0.1,0.6-0.2,1.2-0.2,1.8s0.1,1.3,0.2,1.8c0.7,2.6,2.7,4.7,5.4,5.4c0.6,0.1,1.2,0.2,1.8,0.2
				c0.6,0,1.3-0.1,1.8-0.2c2.6-0.7,4.7-2.7,5.4-5.4c0.1-0.6,0.2-1.2,0.2-1.8S-382.1-267.3-382.2-267.9z M-387-262
				c-0.7,0.4-1.5,0.7-2.4,0.7c-0.9,0-1.7-0.3-2.4-0.7c-0.7-0.4-1.2-0.9-1.6-1.6c-0.4-0.7-0.7-1.5-0.7-2.4s0.3-1.7,0.7-2.4
				c0.4-0.7,0.9-1.2,1.6-1.6c0.7-0.4,1.5-0.7,2.4-0.7c0.9,0,1.7,0.3,2.4,0.7c0.7,0.4,1.2,0.9,1.6,1.6c0.4,0.7,0.7,1.5,0.7,2.4
				s-0.3,1.7-0.7,2.4C-385.8-263-386.4-262.4-387-262z"/>
		</g>
		<text transform="matrix(1 0 0 1 -397.5027 -258.9789)" fill="#26799E" font-family="'Iskra-UltraBold'" font-size="22">Ocean Planning</text>
		<text transform="matrix(0.7 0 0 0.7 -384.2029 -244.4789)" fill="#26799E" font-family="'Iskra-UltraBold'" font-size="19">in</text>
		<text transform="matrix(1 0 0 1 -370.863 -244.4789)" fill="#26799E" font-family="'Iskra-UltraBold'" font-size="19"> </text>
		<text transform="matrix(0.7 0 0 0.7 -367.2151 -244.4789)" fill="#26799E" font-family="'Iskra-UltraBold'" font-size="19">the</text>
		
			<text transform="matrix(1 0 0 1 -342.3181 -238.9789)" fill="#26799E" font-family="'Iskra-UltraBold'" font-size="22" letter-spacing="-1"> </text>
		<text transform="matrix(1 0 0 1 -338.9739 -238.9789)" fill="#26799E" font-family="'Iskra-UltraBold'" font-size="22">Nor</text>
		<text transform="matrix(1 0 0 1 -292.7747 -238.9789)" fill="#26799E" font-family="'Iskra-UltraBold'" font-size="22">t</text>
		<text transform="matrix(1 0 0 1 -278.6287 -238.9789)" fill="#26799E" font-family="'Iskra-UltraBold'" font-size="22">hEa</text>
		<text transform="matrix(1 0 0 1 -235.7073 -238.9789)" fill="#26799E" font-family="'Iskra-UltraBold'" font-size="22">s</text>
		<text transform="matrix(1 0 0 1 -222.6614 -238.9789)" fill="#26799E" font-family="'Iskra-UltraBold'" font-size="22">t </text>
	</g>
</g>
</svg>
